<?xml version="1.0" encoding="UTF-8" standalone="no"?>
<svg
   xmlns:dc="http://purl.org/dc/elements/1.1/"
   xmlns:cc="http://creativecommons.org/ns#"
   xmlns:rdf="http://www.w3.org/1999/02/22-rdf-syntax-ns#"
   xmlns:svg="http://www.w3.org/2000/svg"
   xmlns="http://www.w3.org/2000/svg"
   xmlns:sodipodi="http://sodipodi.sourceforge.net/DTD/sodipodi-0.dtd"
   xmlns:inkscape="http://www.inkscape.org/namespaces/inkscape"
   version="1.1"
   id="Capa_1"
   x="0px"
   y="0px"
   viewBox="0 0 512 512"
   style="enable-background:new 0 0 512 512;"
   xml:space="preserve"
   sodipodi:docname="white-coding-logo.svg"
   inkscape:version="1.0.1 (3bc2e813f5, 2020-09-07)"><metadata
   id="metadata1053"><rdf:RDF><cc:Work
       rdf:about=""><dc:format>image/svg+xml</dc:format><dc:type
         rdf:resource="http://purl.org/dc/dcmitype/StillImage" /><dc:title></dc:title></cc:Work></rdf:RDF></metadata><defs
   id="defs1051" /><sodipodi:namedview
   pagecolor="#ffffff"
   bordercolor="#666666"
   borderopacity="1"
   objecttolerance="10"
   gridtolerance="10"
   guidetolerance="10"
   inkscape:pageopacity="0"
   inkscape:pageshadow="2"
   inkscape:window-width="1317"
   inkscape:window-height="713"
   id="namedview1049"
   showgrid="false"
   inkscape:zoom="1.0507812"
   inkscape:cx="354.37157"
   inkscape:cy="283.44943"
   inkscape:window-x="49"
   inkscape:window-y="27"
   inkscape:window-maximized="1"
   inkscape:current-layer="Capa_1" />
<g
   id="g974"
   style="fill:#ffffff">
	<g
   id="g972"
   style="fill:#ffffff">
		<path
   d="M407.07,377.01c-1.86-1.86-4.44-2.93-7.07-2.93s-5.21,1.07-7.07,2.93c-1.86,1.86-2.93,4.44-2.93,7.07s1.07,5.21,2.93,7.07    c1.86,1.87,4.44,2.93,7.07,2.93s5.21-1.06,7.07-2.93c1.86-1.86,2.93-4.44,2.93-7.07S408.93,378.871,407.07,377.01z"
   id="path970"
   style="fill:#ffffff" />
	</g>
</g>
<g
   id="g980"
   style="fill:#ffffff">
	<g
   id="g978"
   style="fill:#ffffff">
		<path
   d="M472,0.001H40c-22.056,0-40,17.944-40,40v314.083c0,22.056,17.944,40,40,40h157v50.197    c-29.332,2.858-52.333,27.65-52.333,57.719c0,5.523,4.477,10,10,10h202.667c5.523,0,10-4.477,10-10    c0-30.749-24.055-55.972-54.333-57.872v-50.044h46.667c5.523,0,10-4.477,10-10s-4.477-10-10-10H40c-11.028,0-20-8.972-20-20    V40.001c0-11.028,8.972-20,20-20h432c11.028,0,20,8.972,20,20v314.083c0,11.028-8.972,20-20,20h-37.333c-5.523,0-10,4.477-10,10    s4.477,10,10,10H472c22.056,0,40-17.944,40-40V40.001C512,17.944,494.056,0.001,472,0.001z M217,394.084h76v49.917h-76V394.084z     M309.333,464.001c17.494,0,32.265,11.882,36.666,28H166.001c4.4-16.118,19.171-28,36.665-28H309.333z"
   id="path976"
   style="fill:#ffffff" />
	</g>
</g>
<g
   id="g986"
   style="fill:#ffffff">
	<g
   id="g984"
   style="fill:#ffffff">
		<path
   d="M262.07,345.011c-1.86-1.86-4.44-2.93-7.07-2.93c-2.63,0-5.21,1.07-7.07,2.93c-1.86,1.86-2.93,4.44-2.93,7.07    c0,2.64,1.07,5.21,2.93,7.07c1.86,1.87,4.44,2.93,7.07,2.93s5.21-1.06,7.07-2.93c1.86-1.86,2.93-4.43,2.93-7.07    C265,349.451,263.93,346.871,262.07,345.011z"
   id="path982"
   style="fill:#ffffff" />
	</g>
</g>
<g
   id="g992"
   style="fill:#ffffff">
	<g
   id="g990"
   style="fill:#ffffff">
		<path
   d="M146.196,183.314l48.996-48.995c3.906-3.905,3.906-10.237,0.001-14.142c-3.905-3.905-10.237-3.905-14.143,0    l-56.066,56.066c-3.905,3.905-3.905,10.237,0,14.143l56.066,56.066c1.953,1.953,4.512,2.929,7.071,2.929    c2.559,0,5.119-0.976,7.071-2.929c3.905-3.905,3.905-10.237,0-14.143L146.196,183.314z"
   id="path988"
   style="fill:#ffffff" />
	</g>
</g>
<g
   id="g998"
   style="fill:#ffffff">
	<g
   id="g996"
   style="fill:#ffffff">
		<path
   d="M387.015,176.243l-56.066-56.066c-3.905-3.905-10.237-3.905-14.143,0c-3.905,3.905-3.905,10.237,0,14.143l48.996,48.995    l-48.996,48.995c-3.904,3.905-3.904,10.237,0.001,14.142c1.953,1.953,4.512,2.929,7.071,2.929s5.119-0.976,7.071-2.929    l56.066-56.066C390.92,186.48,390.92,180.149,387.015,176.243z"
   id="path994"
   style="fill:#ffffff" />
	</g>
</g>
<g
   id="g1004"
   style="fill:#ffffff">
	<g
   id="g1002"
   style="fill:#ffffff">
		<path
   d="M273.557,121.53c-5.334-1.432-10.818,1.737-12.248,7.071l-29.938,111.731c-1.429,5.335,1.737,10.818,7.071,12.248    c0.867,0.232,1.738,0.343,2.595,0.343c4.415,0,8.456-2.947,9.653-7.414l29.938-111.731    C282.058,128.442,278.892,122.96,273.557,121.53z"
   id="path1000"
   style="fill:#ffffff" />
	</g>
</g>
<g
   id="g1010"
   style="fill:#ffffff">
	<g
   id="g1008"
   style="fill:#ffffff">
		<path
   d="M462,40.084H303c-5.523,0-10,4.477-10,10s4.477,10,10,10h149v250H60v-250h153.5c5.523,0,10-4.477,10-10s-4.477-10-10-10    H50c-5.523,0-10,4.477-10,10v270c0,5.523,4.477,10,10,10h412c5.523,0,10-4.477,10-10v-270C472,44.561,467.523,40.084,462,40.084z"
   id="path1006"
   style="fill:#ffffff" />
	</g>
</g>
<g
   id="g1016"
   style="fill:#ffffff">
	<g
   id="g1014"
   style="fill:#ffffff">
		<path
   d="M265.07,43.011c-1.86-1.86-4.44-2.93-7.07-2.93s-5.21,1.07-7.07,2.93s-2.93,4.44-2.93,7.07s1.07,5.21,2.93,7.08    c1.86,1.86,4.44,2.92,7.07,2.92s5.21-1.06,7.07-2.92c1.86-1.87,2.93-4.44,2.93-7.08C268,47.451,266.93,44.871,265.07,43.011z"
   id="path1012"
   style="fill:#ffffff" />
	</g>
</g>
<g
   id="g1018">
</g>
<g
   id="g1020">
</g>
<g
   id="g1022">
</g>
<g
   id="g1024">
</g>
<g
   id="g1026">
</g>
<g
   id="g1028">
</g>
<g
   id="g1030">
</g>
<g
   id="g1032">
</g>
<g
   id="g1034">
</g>
<g
   id="g1036">
</g>
<g
   id="g1038">
</g>
<g
   id="g1040">
</g>
<g
   id="g1042">
</g>
<g
   id="g1044">
</g>
<g
   id="g1046">
</g>
</svg>
